<svg preserveAspectRatio="xMidYMid meet" width="100%" height="100%" overflow="visible" style="display: block;" viewBox="0 0 776.372 110.439" fill="none" xmlns="http://www.w3.org/2000/svg">
<g id="Group 3">
<path id="Vector" d="M0.040917 109.042V2.17131H53.6101C61.503 2.17131 68.0224 3.56588 73.1476 6.37558C78.2934 9.18528 82.1475 13.123 84.7511 18.2092C87.3548 23.2954 88.6464 29.3659 88.6464 36.4414C88.6464 43.517 87.2934 49.4851 84.5872 54.6738C81.8811 59.8625 77.8629 63.8822 72.5121 66.7534C67.1613 69.6041 60.4985 71.0397 52.5031 71.0397H20.255V109.063H0L0.040917 109.042ZM20.2754 53.7303H51.8881C57.0748 53.7303 61.0931 52.1922 63.9632 49.1364C66.8128 46.0806 68.2479 41.8353 68.2479 36.4414C68.2479 32.8114 67.6329 29.7351 66.3823 27.2536C65.1318 24.772 63.3276 22.8441 60.929 21.4905C58.5304 20.137 55.5373 19.4602 51.8881 19.4602H20.2754V53.7303Z" fill="var(--fill-0, #38AA35)"/>
<g id="Group">
<path id="Vector_2" d="M132.553 46.4114C122.589 46.4114 115.107 55.5993 115.107 73.524V109.045H95.9587V0H115.107V36.4441C120.703 32.2398 127.715 29.7377 135.977 29.7377C149.22 29.7377 167.425 34.5573 167.589 60.2753V109.025H148.441V68.3557C148.441 50.9028 140.958 46.3908 132.553 46.3908V46.4114Z" fill="var(--fill-0, #38AA35)"/>
<path id="Vector_3" d="M247.006 109.046H227.858V103.119C210.268 118.849 175.375 108.574 175.375 73.5247V61.3835C175.539 46.2685 185.031 31.1536 204.036 31.1536H247.006V109.046ZM194.544 73.5247C194.544 83.492 201.084 94.2385 211.683 94.2385C220.724 94.0745 227.879 87.6963 227.879 77.0932V47.6426H211.211C197.045 47.6426 194.544 57.6099 194.544 70.8585V73.5042V73.5247Z" fill="var(--fill-0, #38AA35)"/>
<path id="Vector_4" d="M290.617 46.4084C281.432 46.4084 273.95 51.5561 273.95 67.758V109.042H254.802V60.744C254.966 34.1031 273.642 29.7348 290.617 29.7348C307.592 29.7348 326.432 33.6314 326.432 60.744L310.4 68.0657H307.141C306.833 50.9203 300.293 46.4084 290.637 46.4084H290.617Z" fill="var(--fill-0, #38AA35)"/>
<path id="Vector_5" d="M368.196 46.4084C362.907 46.4084 353.866 49.6898 353.866 67.4299V109.022H334.246V60.2723C334.41 33.6314 353.087 29.7348 369.119 29.7348C377.996 29.7348 387.016 33.0162 392.941 39.5585H393.884C399.809 33.0162 408.829 29.7348 417.398 29.7348C433.758 29.7348 452.435 33.6314 452.599 60.2723V109.022H432.979V67.7375C432.979 49.6693 423.938 46.3879 418.342 46.3879C411.638 46.3879 403.089 49.6693 403.089 67.7375V109.022H383.941V67.7375C383.941 49.6693 375.228 46.3879 368.217 46.3879L368.196 46.4084Z" fill="var(--fill-0, #38AA35)"/>
<path id="Vector_6" d="M532.012 109.046H512.864V103.119C495.274 118.849 460.381 108.574 460.381 73.5247V61.3835C460.545 46.2685 470.037 31.1536 489.041 31.1536H532.012V109.046ZM479.529 73.5247C479.529 83.492 486.069 94.2385 496.668 94.2385C505.709 94.0745 512.864 87.6963 512.864 77.0932V47.6426H496.196C482.03 47.6426 479.529 57.6099 479.529 70.8585V73.5042V73.5247Z" fill="var(--fill-0, #38AA35)"/>
<path id="Vector_7" d="M580.61 30.066C600.229 30.066 615.954 39.1104 615.954 59.0449H604.74C601.623 59.0449 599.922 57.4862 598.671 54.5329C596.949 50.021 591.516 45.0374 582.004 45.0374C565.337 45.0374 559.104 55.4763 559.104 69.9555C559.104 82.4249 565.808 94.8737 582.004 94.8737C592.275 94.8737 596.806 89.726 598.671 85.5217C599.922 82.5684 601.623 81.0098 604.74 81.0098H615.954C615.954 100.801 600.701 109.989 580.61 109.989C554.758 109.989 539.649 93.0074 539.649 69.9555C539.649 46.9037 554.758 30.066 580.61 30.066Z" fill="var(--fill-0, #38AA35)"/>
<path id="Vector_8" d="M623.76 69.9344C623.76 46.4108 635.754 29.2654 660.519 29.2654C685.284 29.2654 696.949 46.4108 696.949 69.9344C696.949 93.4579 684.813 110.439 660.519 110.439C636.225 110.439 623.76 93.4579 623.76 69.9344ZM677.002 69.9344C677.002 54.3477 672.491 44.8521 660.642 44.8521C648.177 44.8521 643.667 54.3477 643.667 69.9344C643.667 85.521 648.177 94.8525 660.642 94.8525C673.106 94.8525 677.002 85.1929 677.002 69.9344Z" fill="var(--fill-0, #38AA35)"/>
<path id="Vector_9" d="M740.556 46.4084C732.766 46.4084 724.36 50.7768 724.36 67.4299V109.022H704.741V60.2723C704.905 34.1031 723.582 29.7348 740.556 29.7348C757.531 29.7348 776.208 34.1031 776.372 60.2723V109.022H756.752V67.4299C756.752 50.7563 748.347 46.4084 740.556 46.4084Z" fill="var(--fill-0, #38AA35)"/>
</g>
</g>
</svg>
