<svg width="1280" height="139" viewBox="0 0 1280 139" fill="none" xmlns="http://www.w3.org/2000/svg">
<path d="M0.00666167 109.069V0.741699H59.0446C64.828 0.741699 70.0124 1.84687 74.5911 4.05722C79.1699 6.26757 82.7703 9.37671 85.4058 13.3713C88.0345 17.3726 89.3523 22.0596 89.3523 27.4257C89.3523 31.5335 88.5603 35.2684 86.983 38.6372C85.4058 42.006 83.2761 44.8222 80.5874 47.0858C77.9054 49.3494 74.8773 51.0605 71.5098 52.2189V52.8514C75.5095 53.6969 79.0833 55.3014 82.2445 57.6649C85.3991 60.035 87.8748 63.031 89.6651 66.6661C91.4553 70.3012 92.3471 74.4822 92.3471 79.2225C92.3471 85.9601 90.8497 91.5392 87.8482 95.9599C84.8467 100.381 80.847 103.669 75.8489 105.827C70.8509 107.984 65.2473 109.062 59.038 109.062H0L0.00666167 109.069ZM20.5312 44.9554H53.6806C56.8351 44.9554 59.4972 44.3762 61.6535 43.2177C63.8097 42.0593 65.4403 40.4814 66.545 38.4775C67.6498 36.4801 68.2022 34.2698 68.2022 31.8464C68.2022 27.2126 66.9643 23.7906 64.4952 21.5802C62.0195 19.3699 58.7851 18.2647 54.7853 18.2647H20.5312V44.9487V44.9554ZM20.5312 91.5392H56.3626C60.6752 91.5392 64.229 90.3541 67.0175 87.984C69.8061 85.6139 71.2036 81.9055 71.2036 76.8523C71.2036 73.9096 70.6246 71.3265 69.4666 69.1161C68.3086 66.9058 66.545 65.1947 64.1758 63.983C61.8065 62.7713 58.7851 62.1655 55.0981 62.1655H20.5312V91.5392Z" fill="#848484"/>
<path d="M135.127 93.5902C145.229 93.5902 152.803 84.2761 152.803 66.1139V30.1092H172.216V107.485C172.056 128.33 149.169 137.964 132.278 138.117V120.587C136.697 119.955 149.482 117.744 152.324 104.009C146.64 108.117 139.699 110.481 131.646 110.481C118.229 110.481 99.7613 105.587 99.6016 79.5292V30.1025H119.015V71.3136C119.015 88.9964 126.588 93.5769 135.114 93.5769L135.127 93.5902Z" fill="#848484"/>
<path d="M217.686 45.5879C212.321 45.5879 203.164 48.9034 203.164 66.9058V109.069H183.278V59.6422C183.438 32.6387 202.379 28.6907 218.637 28.6907C227.635 28.6907 236.793 32.0062 242.789 38.6372H243.734C249.73 32.0062 258.888 28.6907 267.566 28.6907C284.137 28.6907 303.085 32.6387 303.238 59.6422V109.069H283.352V67.2253C283.352 48.9101 274.195 45.5945 268.511 45.5945C261.723 45.5945 253.044 48.9101 253.044 67.2253V109.069H233.631V67.2253C233.631 48.9101 224.793 45.5945 217.686 45.5945V45.5879Z" fill="#848484"/>
<path d="M383.747 109.069H364.333V103.07C346.498 119.022 311.139 108.596 311.139 73.0705V60.7538C311.298 45.4345 320.928 30.1218 340.182 30.1218H383.747V109.075V109.069ZM330.552 73.0639C330.552 83.1703 337.18 94.0689 347.915 94.0689C357.073 93.9091 364.333 87.4378 364.333 76.699V46.8526H347.443C333.081 46.8526 330.552 56.959 330.552 70.3808V73.0639Z" fill="#848484"/>
<path d="M432.995 29.0103C452.881 29.0103 468.827 38.1712 468.827 58.384H457.46C454.305 58.384 452.568 56.8061 451.304 53.8035C449.567 49.223 444.043 44.1698 434.413 44.1698C417.522 44.1698 411.206 54.7489 411.206 69.4357C411.206 82.0653 417.995 94.7016 434.413 94.7016C444.828 94.7016 449.407 89.4887 451.304 85.2277C452.568 82.2251 454.305 80.6473 457.46 80.6473H468.827C468.827 100.7 453.36 110.021 432.995 110.021C406.794 110.021 391.48 92.8108 391.48 69.4357C391.48 46.0606 406.794 29.0103 432.995 29.0103Z" fill="#848484"/>
<path d="M502.997 109.043V2.17139H556.566C564.459 2.17139 570.978 3.56596 576.104 6.37566C581.249 9.18536 585.104 13.1231 587.707 18.2093C590.311 23.2954 591.602 29.366 591.602 36.4415C591.602 43.5171 590.249 49.4851 587.543 54.6739C584.837 59.8626 580.819 63.8823 575.468 66.7535C570.117 69.6042 563.455 71.0398 555.459 71.0398H523.211V109.063H502.956L502.997 109.043ZM523.231 53.7304H554.844C560.031 53.7304 564.049 52.1923 566.919 49.1365C569.769 46.0807 571.204 41.8353 571.204 36.4415C571.204 32.8115 570.589 29.7352 569.338 27.2536C568.088 24.7721 566.284 22.8442 563.885 21.4906C561.486 20.137 558.493 19.4603 554.844 19.4603H523.231V53.7304Z" fill="#848484"/>
<path d="M635.509 46.4114C625.546 46.4114 618.063 55.5993 618.063 73.524V109.045H598.915V0H618.063V36.4441C623.66 32.2398 630.671 29.7377 638.933 29.7377C652.177 29.7377 670.382 34.5573 670.546 60.2753V109.025H651.398V68.3557C651.398 50.9028 643.915 46.3908 635.509 46.3908V46.4114Z" fill="#848484"/>
<path d="M749.963 109.046H730.815V103.119C713.225 118.849 678.332 108.574 678.332 73.5247V61.3835C678.496 46.2685 687.988 31.1536 706.992 31.1536H749.963V109.046ZM697.5 73.5247C697.5 83.492 704.04 94.2385 714.639 94.2385C723.68 94.0744 730.835 87.6962 730.835 77.0932V47.6426H714.168C700.002 47.6426 697.5 57.6099 697.5 70.8585V73.5042V73.5247Z" fill="#848484"/>
<path d="M793.573 46.4083C784.389 46.4083 776.906 51.556 776.906 67.7579V109.042H757.758V60.7439C757.922 34.103 776.598 29.7346 793.573 29.7346C810.548 29.7346 829.388 33.6313 829.388 60.7439L813.357 68.0655H810.097C809.789 50.9202 803.25 46.4083 793.594 46.4083H793.573Z" fill="#848484"/>
<path d="M871.153 46.4083C865.864 46.4083 856.823 49.6897 856.823 67.4298V109.022H837.203V60.2722C837.367 33.6313 856.044 29.7346 872.075 29.7346C880.952 29.7346 889.973 33.016 895.898 39.5583H896.841C902.765 33.016 911.786 29.7346 920.355 29.7346C936.715 29.7346 955.391 33.6313 955.556 60.2722V109.022H935.936V67.7374C935.936 49.6691 926.895 46.3877 921.298 46.3877C914.595 46.3877 906.046 49.6691 906.046 67.7374V109.022H886.898V67.7374C886.898 49.6691 878.185 46.3877 871.173 46.3877L871.153 46.4083Z" fill="#848484"/>
<path d="M1034.97 109.046H1015.82V103.119C998.231 118.849 963.338 108.574 963.338 73.5247V61.3835C963.502 46.2685 972.994 31.1536 991.998 31.1536H1034.97V109.046ZM982.486 73.5247C982.486 83.492 989.026 94.2385 999.625 94.2385C1008.67 94.0744 1015.82 87.6962 1015.82 77.0932V47.6426H999.153C984.987 47.6426 982.486 57.6099 982.486 70.8585V73.5042V73.5247Z" fill="#848484"/>
<path d="M1083.57 30.0659C1103.19 30.0659 1118.91 39.1103 1118.91 59.0448H1107.7C1104.58 59.0448 1102.88 57.4861 1101.63 54.5329C1099.91 50.0209 1094.47 45.0373 1084.96 45.0373C1068.29 45.0373 1062.06 55.4763 1062.06 69.9554C1062.06 82.4248 1068.76 94.8736 1084.96 94.8736C1095.23 94.8736 1099.76 89.7259 1101.63 85.5216C1102.88 82.5683 1104.58 81.0097 1107.7 81.0097H1118.91C1118.91 100.801 1103.66 109.989 1083.57 109.989C1057.71 109.989 1042.61 93.0073 1042.61 69.9554C1042.61 46.9036 1057.71 30.0659 1083.57 30.0659Z" fill="#848484"/>
<path d="M1126.72 69.9343C1126.72 46.4108 1138.71 29.2654 1163.48 29.2654C1188.24 29.2654 1199.91 46.4108 1199.91 69.9343C1199.91 93.4579 1187.77 110.439 1163.48 110.439C1139.18 110.439 1126.72 93.4579 1126.72 69.9343ZM1179.96 69.9343C1179.96 54.3476 1175.45 44.8521 1163.6 44.8521C1151.13 44.8521 1146.62 54.3476 1146.62 69.9343C1146.62 85.521 1151.13 94.8525 1163.6 94.8525C1176.06 94.8525 1179.96 85.1928 1179.96 69.9343Z" fill="#848484"/>
<path d="M1243.51 46.4083C1235.72 46.4083 1227.32 50.7766 1227.32 67.4298V109.022H1207.7V60.2722C1207.86 34.103 1226.54 29.7346 1243.51 29.7346C1260.49 29.7346 1279.16 34.103 1279.33 60.2722V109.022H1259.71V67.4298C1259.71 50.7561 1251.3 46.4083 1243.51 46.4083Z" fill="#848484"/>
</svg>
