<svg preserveAspectRatio="xMidYMid meet" width="100%" height="100%" overflow="visible" style="display: block;" viewBox="0 0 468.827 137.375" fill="none" xmlns="http://www.w3.org/2000/svg">
<g id="Group 1">
<path id="Vector" d="M0.00666167 108.327V0H59.0446C64.828 0 70.0124 1.10517 74.5911 3.31552C79.1699 5.52587 82.7703 8.63501 85.4058 12.6296C88.0345 16.6309 89.3523 21.3179 89.3523 26.684C89.3523 30.7918 88.5603 34.5267 86.983 37.8955C85.4058 41.2643 83.2761 44.0805 80.5874 46.3441C77.9054 48.6077 74.8773 50.3188 71.5098 51.4772V52.1097C75.5095 52.9552 79.0833 54.5597 82.2445 56.9232C85.3991 59.2933 87.8748 62.2893 89.6651 65.9244C91.4553 69.5595 92.3471 73.7405 92.3471 78.4808C92.3471 85.2184 90.8497 90.7975 87.8482 95.2182C84.8467 99.6389 80.847 102.928 75.8489 105.085C70.8509 107.242 65.2473 108.321 59.038 108.321H0L0.00666167 108.327ZM20.5312 44.2137H53.6806C56.8351 44.2137 59.4972 43.6345 61.6535 42.476C63.8097 41.3176 65.4403 39.7397 66.545 37.7358C67.6498 35.7384 68.2022 33.5281 68.2022 31.1047C68.2022 26.4709 66.9643 23.0489 64.4952 20.8385C62.0195 18.6282 58.7851 17.523 54.7853 17.523H20.5312V44.207V44.2137ZM20.5312 90.7975H56.3626C60.6752 90.7975 64.229 89.6124 67.0175 87.2423C69.8061 84.8722 71.2036 81.1638 71.2036 76.1106C71.2036 73.1679 70.6246 70.5848 69.4666 68.3744C68.3086 66.1641 66.545 64.453 64.1758 63.2413C61.8065 62.0296 58.7851 61.4238 55.0981 61.4238H20.5312V90.7975Z" fill="var(--fill-0, #38AA35)"/>
<path id="Vector_2" d="M135.127 92.8484C145.229 92.8484 152.803 83.5343 152.803 65.3721V29.3674H172.216V106.743C172.056 127.588 149.169 137.222 132.278 137.375V119.845C136.697 119.213 149.482 117.002 152.324 103.268C146.64 107.375 139.699 109.739 131.646 109.739C118.229 109.739 99.7612 104.846 99.6015 78.7874V29.3607H119.015V70.5718C119.015 88.2546 126.588 92.8351 135.113 92.8351L135.127 92.8484Z" fill="var(--fill-0, #38AA35)"/>
<g id="Group">
<path id="Vector_3" d="M217.686 44.846C212.322 44.846 203.165 48.1615 203.165 66.1639V108.327H183.279V58.9004C183.439 31.8968 202.379 27.9488 218.638 27.9488C227.636 27.9488 236.793 31.2643 242.789 37.8954H243.734C249.731 31.2643 258.888 27.9488 267.567 27.9488C284.138 27.9488 303.085 31.8968 303.238 58.9004V108.327H283.353V66.4835C283.353 48.1682 274.195 44.8527 268.512 44.8527C261.723 44.8527 253.045 48.1682 253.045 66.4835V108.327H233.632V66.4835C233.632 48.1682 224.794 44.8527 217.686 44.8527V44.846Z" fill="var(--fill-0, #38AA35)"/>
<path id="Vector_4" d="M383.747 108.327H364.334V102.328C346.498 118.28 311.139 107.854 311.139 72.3288V60.0121C311.299 44.6927 320.929 29.3801 340.182 29.3801H383.747V108.334V108.327ZM330.552 72.3221C330.552 82.4285 337.181 93.3271 347.915 93.3271C357.073 93.1673 364.334 86.6961 364.334 75.9572V46.1108H347.443C333.081 46.1108 330.552 56.2172 330.552 69.6391V72.3221Z" fill="var(--fill-0, #38AA35)"/>
<path id="Vector_5" d="M432.995 28.2684C452.881 28.2684 468.827 37.4294 468.827 57.6421H457.46C454.305 57.6421 452.568 56.0642 451.304 53.0616C449.567 48.4811 444.043 43.428 434.413 43.428C417.522 43.428 411.206 54.007 411.206 68.6939C411.206 81.3235 417.995 93.9598 434.413 93.9598C444.828 93.9598 449.407 88.7468 451.304 84.4859C452.568 81.4833 454.305 79.9054 457.46 79.9054H468.827C468.827 99.9584 453.36 109.279 432.995 109.279C406.794 109.279 391.48 92.069 391.48 68.6939C391.48 45.3188 406.794 28.2684 432.995 28.2684Z" fill="var(--fill-0, #38AA35)"/>
</g>
</g>
</svg>
