<svg width="266" height="114" viewBox="0 0 266 114" fill="none" xmlns="http://www.w3.org/2000/svg">
<g clip-path="url(#clip0_41_80)">
<path d="M20.6835 19.2322C20.6308 19.3112 20.5096 19.3955 20.4253 19.2322H20.6835Z" fill="white"/>
<path d="M79.8127 71.709V28.8428H103.184C105.473 28.8428 107.525 29.2801 109.338 30.1548C111.15 31.0294 112.576 32.2597 113.619 33.8405C114.659 35.4238 115.181 37.2785 115.181 39.4019C115.181 41.0274 114.868 42.5054 114.243 43.8385C113.619 45.1715 112.776 46.2859 111.711 47.1817C110.65 48.0774 109.451 48.7545 108.118 49.2129V49.4632C109.701 49.7977 111.116 50.4327 112.367 51.3679C113.616 52.3058 114.596 53.4913 115.305 54.9298C116.014 56.3682 116.367 58.0227 116.367 59.8985C116.367 62.5646 115.774 64.7724 114.586 66.5217C113.398 68.271 111.814 69.5725 109.836 70.426C107.857 71.2796 105.639 71.7064 103.181 71.7064H79.8101L79.8127 71.709ZM87.9376 46.3386H101.06C102.309 46.3386 103.363 46.1094 104.216 45.651C105.07 45.1926 105.715 44.5682 106.153 43.7752C106.59 42.9849 106.809 42.1102 106.809 41.1512C106.809 39.3176 106.319 37.9635 105.341 37.0888C104.361 36.2142 103.081 35.7768 101.497 35.7768H87.9376V46.336V46.3386ZM87.9376 64.7724H102.122C103.829 64.7724 105.236 64.3034 106.34 63.3655C107.444 62.4276 107.997 60.9602 107.997 58.9606C107.997 57.7961 107.768 56.774 107.309 55.8993C106.851 55.0246 106.153 54.3476 105.215 53.8681C104.277 53.3886 103.081 53.1489 101.621 53.1489H87.9376V64.7724Z" fill="white"/>
<path d="M133.301 65.584C137.3 65.584 140.298 61.8983 140.298 54.7113V40.4638H147.983V71.0822C147.92 79.3309 138.86 83.143 132.173 83.2036V76.2669C133.923 76.0167 138.984 75.142 140.108 69.707C137.859 71.3325 135.111 72.2677 131.923 72.2677C126.612 72.2677 119.301 70.3314 119.238 60.0199V40.4612H126.923V56.7689C126.923 63.7661 129.921 65.5787 133.296 65.5787L133.301 65.584Z" fill="white"/>
<path d="M165.983 46.589C163.859 46.589 160.234 47.901 160.234 55.0247V71.7091H152.362V52.1505C152.426 41.4649 159.923 39.9026 166.36 39.9026C169.921 39.9026 173.546 41.2146 175.92 43.8386H176.294C178.668 41.2146 182.293 39.9026 185.728 39.9026C192.288 39.9026 199.789 41.4649 199.85 52.1505V71.7091H191.978V55.1512C191.978 47.9036 188.352 46.5916 186.103 46.5916C183.415 46.5916 179.98 47.9036 179.98 55.1512V71.7091H172.295V55.1512C172.295 47.9036 168.796 46.5916 165.983 46.5916V46.589Z" fill="white"/>
<path d="M231.719 71.7091H224.034V69.3354C216.974 75.6477 202.977 71.5221 202.977 57.4643V52.5904C203.04 46.5284 206.852 40.469 214.474 40.469H231.719V71.7118V71.7091ZM210.661 57.4616C210.661 61.4608 213.285 65.7736 217.535 65.7736C221.16 65.7103 224.034 63.1496 224.034 58.9001V47.0895H217.348C211.663 47.0895 210.661 51.0887 210.661 56.3999V57.4616Z" fill="white"/>
<path d="M251.214 40.0291C259.086 40.0291 265.399 43.6542 265.399 51.6526H260.899C259.65 51.6526 258.963 51.0282 258.462 49.84C257.774 48.0275 255.588 46.0279 251.776 46.0279C245.089 46.0279 242.589 50.2141 242.589 56.0259C242.589 61.0235 245.276 66.0239 251.776 66.0239C255.899 66.0239 257.711 63.961 258.462 62.2749C258.963 61.0868 259.65 60.4624 260.899 60.4624H265.399C265.399 68.3976 259.276 72.0859 251.214 72.0859C240.842 72.0859 234.78 65.2757 234.78 56.0259C234.78 46.7761 240.842 40.0291 251.214 40.0291Z" fill="white"/>
<path d="M165.342 94.3213V80.5928H172.226C173.24 80.5928 174.078 80.7719 174.737 81.1328C175.398 81.4938 175.893 81.9996 176.228 82.653C176.563 83.3063 176.729 84.0861 176.729 84.9951C176.729 85.904 176.555 86.6706 176.207 87.3371C175.859 88.0037 175.343 88.52 174.655 88.8889C173.968 89.2551 173.111 89.4395 172.084 89.4395H167.94V94.3239H165.337L165.342 94.3213ZM167.942 87.216H172.005C172.671 87.216 173.188 87.0184 173.557 86.6258C173.923 86.2333 174.107 85.6879 174.107 84.9951C174.107 84.5287 174.028 84.1336 173.867 83.8148C173.707 83.496 173.475 83.2484 173.167 83.0745C172.858 82.9006 172.474 82.8137 172.005 82.8137H167.942V87.216Z" fill="white"/>
<path d="M182.372 86.2754C181.091 86.2754 180.13 87.4557 180.13 89.7582V94.3212H177.669V80.3135H180.13V84.995C180.849 84.4549 181.75 84.1335 182.812 84.1335C184.513 84.1335 186.853 84.7526 186.874 88.0563V94.3186H184.413V89.0943C184.413 86.8524 183.452 86.2728 182.372 86.2728V86.2754Z" fill="white"/>
<path d="M197.08 94.3211H194.619V93.5597C192.359 95.5804 187.875 94.2605 187.875 89.7581V88.1985C187.896 86.2568 189.116 84.3152 191.558 84.3152H197.08V94.3211ZM190.338 89.7581C190.338 91.0385 191.179 92.419 192.541 92.419C193.703 92.3979 194.622 91.5786 194.622 90.2165V86.4333H192.48C190.66 86.4333 190.338 87.7137 190.338 89.4156V89.7555V89.7581Z" fill="white"/>
<path d="M202.684 86.2754C201.503 86.2754 200.542 86.9367 200.542 89.0179V94.3212H198.081V88.1169C198.102 84.6947 200.502 84.1335 202.684 84.1335C204.865 84.1335 207.286 84.6341 207.286 88.1169L205.226 89.0575H204.807C204.767 86.855 203.927 86.2754 202.686 86.2754H202.684Z" fill="white"/>
<path d="M212.653 86.2754C211.973 86.2754 210.811 86.6969 210.811 88.9758V94.3186H208.29V88.0563C208.311 84.6341 210.711 84.1335 212.771 84.1335C213.912 84.1335 215.071 84.5551 215.833 85.3955H215.954C216.715 84.5551 217.874 84.1335 218.976 84.1335C221.078 84.1335 223.478 84.6341 223.499 88.0563V94.3186H220.978V89.0153C220.978 86.6943 219.816 86.2728 219.097 86.2728C218.235 86.2728 217.137 86.6943 217.137 89.0153V94.3186H214.676V89.0153C214.676 86.6943 213.556 86.2728 212.655 86.2728L212.653 86.2754Z" fill="white"/>
<path d="M233.705 94.3211H231.244V93.5597C228.984 95.5804 224.5 94.2605 224.5 89.7581V88.1985C224.521 86.2568 225.741 84.3152 228.183 84.3152H233.705V94.3211ZM226.961 89.7581C226.961 91.0385 227.801 92.419 229.163 92.419C230.325 92.3979 231.244 91.5786 231.244 90.2165V86.4333H229.102C227.282 86.4333 226.961 87.7137 226.961 89.4156V89.7555V89.7581Z" fill="white"/>
<path d="M239.949 84.1758C242.471 84.1758 244.491 85.3376 244.491 87.8984H243.05C242.65 87.8984 242.431 87.6981 242.27 87.3188C242.049 86.7392 241.351 86.099 240.128 86.099C237.987 86.099 237.186 87.4399 237.186 89.2999C237.186 90.9017 238.047 92.5009 240.128 92.5009C241.448 92.5009 242.031 91.8396 242.27 91.2995C242.431 90.9201 242.65 90.7199 243.05 90.7199H244.491C244.491 93.2622 242.531 94.4425 239.949 94.4425C236.627 94.4425 234.686 92.2611 234.686 89.2999C234.686 86.3387 236.627 84.1758 239.949 84.1758Z" fill="white"/>
<path d="M245.495 89.2973C245.495 86.2755 247.036 84.073 250.219 84.073C253.401 84.073 254.9 86.2755 254.9 89.2973C254.9 92.3191 253.341 94.5004 250.219 94.5004C247.097 94.5004 245.495 92.3191 245.495 89.2973ZM252.337 89.2973C252.337 87.295 251.757 86.0752 250.235 86.0752C248.633 86.0752 248.053 87.295 248.053 89.2973C248.053 91.2995 248.633 92.4982 250.235 92.4982C251.836 92.4982 252.337 91.2573 252.337 89.2973Z" fill="white"/>
<path d="M260.504 86.2754C259.503 86.2754 258.423 86.8366 258.423 88.9758V94.3186H255.901V88.0563C255.922 84.6947 258.322 84.1335 260.504 84.1335C262.685 84.1335 265.085 84.6947 265.106 88.0563V94.3186H262.585V88.9758C262.585 86.8339 261.505 86.2754 260.504 86.2754Z" fill="white"/>
<path d="M35.8 0C35.7183 0.126457 35.526 0.258183 35.3916 0H35.8Z" fill="white"/>
<path d="M35.389 0C35.5286 0.0974772 35.6551 0.0895737 35.7974 0L36.5008 0.0447868C37.4387 0.455772 47.2997 0.977407 54.8555 7.90356L56.9526 9.82413L58.9495 12.0134C63.1964 17.1955 65.6781 23.2312 66.5264 29.9703V83.2877C65.6781 90.0268 63.1964 96.0625 58.9495 101.245L56.9552 103.431L54.8634 105.357C49.6312 109.754 43.261 112.515 36.4191 113.155H30.1621C14.1232 111.575 1.72512 99.0869 -0.000488281 83.0164V30.2469C1.71458 14.1711 14.081 1.83626 29.9092 0.100112L35.3917 0H35.389ZM59.6714 82.3182L59.6661 30.8713C58.8204 23.8582 55.8329 17.9121 50.5138 13.2569C42.9264 6.7391 32.3014 5.06618 23.07 8.93629C13.8966 12.7827 7.65543 21.4503 6.89668 31.443V81.815C7.6607 91.871 13.973 100.581 23.2281 104.39C32.4278 108.176 42.9712 106.479 50.5112 100.004C55.8224 95.3406 58.8283 89.4314 59.6688 82.3182" fill="white"/>
<path d="M36.6956 42.1155C36.3242 43.9886 34.9252 44.9766 33.2312 44.995C31.6874 45.0134 29.888 43.8384 29.8801 42.0048L29.8169 25.2967C30.3148 23.8135 31.1737 22.757 32.6938 22.5436C34.5643 22.2828 36.6298 23.4051 36.635 25.4679L36.693 42.1128L36.6956 42.1155Z" fill="#38AA35"/>
<path d="M41.8279 30.6555C43.6984 31.027 44.689 32.4259 44.7074 34.1199C44.7258 35.6637 43.5508 37.4631 41.7172 37.471L25.0091 37.5342C23.5259 37.0363 22.4694 36.1775 22.256 34.6574C21.9952 32.7868 23.1175 30.7214 25.1803 30.7161L41.8252 30.6582L41.8279 30.6555Z" fill="#38AA35"/>
</g>
<defs>
<clipPath id="clip0_41_80">
<rect width="265.399" height="113.161" fill="white"/>
</clipPath>
</defs>
</svg>
