<svg width="430" height="730" viewBox="0 0 430 730" fill="none" xmlns="http://www.w3.org/2000/svg">
<path d="M228.434 0C229.335 0.628082 230.152 0.577157 231.07 0L235.611 0.288578C241.664 2.93671 305.316 6.2978 354.087 50.9256L367.624 63.3005L380.514 77.4069C407.927 110.797 423.946 149.687 429.422 193.11V536.654C423.946 580.076 407.927 618.966 380.514 652.357L367.641 666.446L354.138 678.855C320.366 707.187 279.246 724.977 235.083 729.102H194.695C91.1662 718.916 11.1386 638.454 0 534.905V194.892C11.0705 91.3096 90.8941 11.8317 193.063 0.645057L228.451 0H228.434ZM385.173 530.407L385.139 198.915C379.681 153.727 360.397 115.414 326.062 85.4192C277.087 43.4225 208.504 32.6433 148.917 57.5799C89.7037 82.3636 49.4178 138.212 44.5203 202.599V527.165C49.4518 591.959 90.1969 648.079 149.937 672.625C209.32 697.018 277.376 686.086 326.045 644.361C360.328 614.315 379.732 576.24 385.156 530.407" fill="url(#paint0_linear_114_1157)"/>
<defs>
<linearGradient id="paint0_linear_114_1157" x1="214.711" y1="0" x2="214.711" y2="729.102" gradientUnits="userSpaceOnUse">
<stop stop-color="#9F9F9F"/>
<stop offset="0.641282" stop-color="white" stop-opacity="0"/>
</linearGradient>
</defs>
</svg>
