<svg width="20" height="20" viewBox="0 0 20 20" fill="none" xmlns="http://www.w3.org/2000/svg">
<path d="M17.5 4.16622C17.5 5.54704 14.1421 6.66642 10 6.66642C5.85786 6.66642 2.5 5.54704 2.5 4.16622M17.5 4.16622C17.5 2.78539 14.1421 1.66602 10 1.66602C5.85786 1.66602 2.5 2.78539 2.5 4.16622M17.5 4.16622V15.8338C17.5 16.4969 16.7098 17.1328 15.3033 17.6017C13.8968 18.0706 11.9891 18.334 10 18.334C8.01088 18.334 6.10322 18.0706 4.6967 17.6017C3.29018 17.1328 2.5 16.4969 2.5 15.8338V4.16622M2.5 10C2.5 10.6631 3.29018 11.299 4.6967 11.7679C6.10322 12.2368 8.01088 12.5002 10 12.5002C11.9891 12.5002 13.8968 12.2368 15.3033 11.7679C16.7098 11.299 17.5 10.6631 17.5 10" stroke="#38AA35" stroke-width="2" stroke-linecap="round"/>
</svg>
