<svg width="20" height="20" viewBox="0 0 20 20" fill="none" xmlns="http://www.w3.org/2000/svg">
<g clip-path="url(#clip0_122_1361)">
<path d="M5 15.0004H11.6667M2.5 18.334H17.5M11.6667 18.334C13.2138 18.334 14.6975 17.7194 15.7915 16.6253C16.8854 15.5313 17.5 14.0474 17.5 12.5002C17.5 10.953 16.8854 9.46915 15.7915 8.3751C14.6975 7.28105 13.2138 6.66642 11.6667 6.66642H10.8333M7.5 11.6668H9.16667M10 4.99962V2.49942C10 2.27838 9.9122 2.06641 9.75592 1.91011C9.59964 1.75382 9.38768 1.66602 9.16667 1.66602H7.5C7.27899 1.66602 7.06702 1.75382 6.91074 1.91011C6.75446 2.06641 6.66667 2.27838 6.66667 2.49942V4.99962M7.5 10C7.05797 10 6.63405 9.82441 6.32149 9.51182C6.00893 9.19923 5.83333 8.77528 5.83333 8.33322V4.99962H10.8333V8.33322C10.8333 8.77528 10.6577 9.19923 10.3452 9.51182C10.0326 9.82441 9.60869 10 9.16667 10H7.5Z" stroke="#38AA35" stroke-width="2" stroke-linecap="round"/>
</g>
<defs>
<clipPath id="clip0_122_1361">
<rect width="20" height="20" fill="white"/>
</clipPath>
</defs>
</svg>
