<svg width="33" height="33" viewBox="0 0 33 33" fill="none" xmlns="http://www.w3.org/2000/svg">
<path d="M16.3347 12.3333C15.2738 12.3333 14.2564 12.7548 13.5062 13.5049C12.7561 14.2551 12.3347 15.2725 12.3347 16.3333C12.3347 17.3942 12.7561 18.4116 13.5062 19.1618C14.2564 19.9119 15.2738 20.3333 16.3347 20.3333C17.3955 20.3333 18.4129 19.9119 19.1631 19.1618C19.9132 18.4116 20.3347 17.3942 20.3347 16.3333C20.3347 15.2725 19.9132 14.2551 19.1631 13.5049C18.4129 12.7548 17.3955 12.3333 16.3347 12.3333ZM16.3347 9.66667C18.1028 9.66667 19.7985 10.369 21.0487 11.6193C22.299 12.8695 23.0013 14.5652 23.0013 16.3333C23.0013 18.1014 22.299 19.7971 21.0487 21.0474C19.7985 22.2976 18.1028 23 16.3347 23C14.5666 23 12.8709 22.2976 11.6206 21.0474C10.3704 19.7971 9.668 18.1014 9.668 16.3333C9.668 14.5652 10.3704 12.8695 11.6206 11.6193C12.8709 10.369 14.5666 9.66667 16.3347 9.66667ZM25.0013 9.33333C25.0013 9.77536 24.8257 10.1993 24.5132 10.5118C24.2006 10.8244 23.7767 11 23.3347 11C22.8926 11 22.4687 10.8244 22.1562 10.5118C21.8436 10.1993 21.668 9.77536 21.668 9.33333C21.668 8.89131 21.8436 8.46738 22.1562 8.15482C22.4687 7.84226 22.8926 7.66667 23.3347 7.66667C23.7767 7.66667 24.2006 7.84226 24.5132 8.15482C24.8257 8.46738 25.0013 8.89131 25.0013 9.33333ZM16.3347 5.66667C13.036 5.66667 12.4973 5.676 10.9627 5.744C9.91733 5.79333 9.216 5.93333 8.56533 6.18667C8.02111 6.38716 7.52896 6.70751 7.12533 7.124C6.70836 7.52749 6.38755 8.01965 6.18667 8.564C5.93333 9.21733 5.79333 9.91733 5.74533 10.9613C5.676 12.4333 5.66667 12.948 5.66667 16.3333C5.66667 19.6333 5.676 20.1707 5.744 21.7053C5.79333 22.7493 5.93333 23.452 6.18533 24.1013C6.412 24.6813 6.67867 25.0987 7.12133 25.5413C7.57067 25.9893 7.988 26.2573 8.56133 26.4787C9.22 26.7333 9.92133 26.8747 10.9613 26.9227C12.4333 26.992 12.948 27 16.3333 27C19.6333 27 20.1707 26.9907 21.7053 26.9227C22.748 26.8733 23.4493 26.7333 24.1013 26.4813C24.6456 26.2808 25.1377 25.9605 25.5413 25.544C25.9907 25.096 26.2587 24.6787 26.48 24.104C26.7333 23.448 26.8747 22.7467 26.9227 21.704C26.992 20.2333 27 19.7173 27 16.3333C27 13.0347 26.9907 12.496 26.9227 10.9613C26.8733 9.91867 26.732 9.21467 26.48 8.564C26.2795 8.01978 25.9592 7.52763 25.5427 7.124C25.1392 6.70703 24.647 6.38622 24.1027 6.18533C23.4493 5.932 22.748 5.792 21.7053 5.744C20.2347 5.67467 19.72 5.66667 16.3333 5.66667M16.3333 3C19.956 3 20.408 3.01333 21.8307 3.08C23.2493 3.14667 24.2173 3.36933 25.0667 3.7C25.9467 4.03867 26.688 4.49733 27.4293 5.23733C28.1076 5.90364 28.6322 6.70996 28.9667 7.6C29.296 8.44933 29.52 9.41733 29.5867 10.8373C29.6493 12.2587 29.6667 12.7107 29.6667 16.3333C29.6667 19.956 29.6533 20.408 29.5867 21.8293C29.52 23.2507 29.296 24.216 28.9667 25.0667C28.6322 25.9567 28.1076 26.763 27.4293 27.4293C26.763 28.1076 25.9567 28.6322 25.0667 28.9667C24.2173 29.296 23.2493 29.52 21.8307 29.5867C20.408 29.6493 19.956 29.6667 16.3333 29.6667C12.7107 29.6667 12.2587 29.6533 10.836 29.5867C9.41733 29.52 8.45067 29.296 7.6 28.9667C6.70996 28.6322 5.90364 28.1076 5.23733 27.4293C4.55908 26.763 4.03442 25.9567 3.7 25.0667C3.36933 24.2173 3.14667 23.2493 3.08 21.8293C3.016 20.408 3 19.956 3 16.3333C3 12.7107 3.01333 12.2587 3.08 10.8373C3.14667 9.416 3.36933 8.45067 3.7 7.6C4.03442 6.70996 4.55908 5.90364 5.23733 5.23733C5.90364 4.55908 6.70996 4.03442 7.6 3.7C8.44933 3.36933 9.416 3.14667 10.836 3.08C12.26 3.01733 12.712 3 16.3347 3" fill="black"/>
</svg>
