<svg width="20" height="20" viewBox="0 0 20 20" fill="none" xmlns="http://www.w3.org/2000/svg">
<g clip-path="url(#clip0_122_1376)">
<path d="M8.05893 3.44736C8.10485 2.96431 8.32921 2.51573 8.68818 2.18926C9.04716 1.86279 9.51495 1.68188 10.0002 1.68188C10.4854 1.68188 10.9532 1.86279 11.3122 2.18926C11.6712 2.51573 11.8955 2.96431 11.9414 3.44736C11.969 3.75941 12.0714 4.06021 12.2399 4.32431C12.4084 4.58841 12.638 4.80804 12.9093 4.96459C13.1807 5.12115 13.4857 5.21003 13.7987 5.22371C14.1116 5.23739 14.4233 5.17548 14.7073 5.0432C15.1482 4.84301 15.6478 4.81404 16.1089 4.96193C16.57 5.10982 16.9596 5.42399 17.2019 5.84328C17.4441 6.26258 17.5217 6.75701 17.4195 7.23034C17.3173 7.70367 17.0426 8.12204 16.6489 8.40403C16.3926 8.5839 16.1833 8.82287 16.0389 9.10072C15.8944 9.37856 15.819 9.68712 15.819 10.0003C15.819 10.3134 15.8944 10.622 16.0389 10.8998C16.1833 11.1777 16.3926 11.4167 16.6489 11.5965C17.0426 11.8785 17.3173 12.2969 17.4195 12.7702C17.5217 13.2436 17.4441 13.738 17.2019 14.1573C16.9596 14.5766 16.57 14.8907 16.1089 15.0386C15.6478 15.1865 15.1482 15.1575 14.7073 14.9574C14.4233 14.8251 14.1116 14.7632 13.7987 14.7768C13.4857 14.7905 13.1807 14.8794 12.9093 15.036C12.638 15.1925 12.4084 15.4121 12.2399 15.6762C12.0714 15.9403 11.969 16.2412 11.9414 16.5532C11.8955 17.0362 11.6712 17.4848 11.3122 17.8113C10.9532 18.1378 10.4854 18.3187 10.0002 18.3187C9.51495 18.3187 9.04716 18.1378 8.68818 17.8113C8.32921 17.4848 8.10485 17.0362 8.05893 16.5532C8.03138 16.241 7.92901 15.9401 7.76049 15.6759C7.59196 15.4117 7.36224 15.192 7.09079 15.0355C6.81934 14.8789 6.51416 14.79 6.20108 14.7764C5.88801 14.7629 5.57627 14.8249 5.29227 14.9574C4.85134 15.1575 4.3517 15.1865 3.8906 15.0386C3.42949 14.8907 3.03991 14.5766 2.79767 14.1573C2.55543 13.738 2.47786 13.2436 2.58007 12.7702C2.68227 12.2969 2.95693 11.8785 3.3506 11.5965C3.60695 11.4167 3.81621 11.1777 3.96067 10.8998C4.10514 10.622 4.18056 10.3134 4.18056 10.0003C4.18056 9.68712 4.10514 9.37856 3.96067 9.10072C3.81621 8.82287 3.60695 8.5839 3.3506 8.40403C2.95749 8.1219 2.68331 7.70369 2.58135 7.23068C2.47939 6.75767 2.55694 6.26365 2.79892 5.84462C3.0409 5.4256 3.43003 5.11151 3.89067 4.9634C4.35132 4.81528 4.85059 4.84372 5.29143 5.0432C5.5754 5.17548 5.88705 5.23739 6.20002 5.22371C6.51298 5.21003 6.81804 5.12115 7.08938 4.96459C7.36072 4.80804 7.59034 4.58841 7.75882 4.32431C7.9273 4.06021 8.02967 3.75941 8.05727 3.44736M12.4995 10.0006C12.4995 11.3813 11.3802 12.5006 9.99951 12.5006C8.6188 12.5006 7.49951 11.3813 7.49951 10.0006C7.49951 8.61986 8.6188 7.50057 9.99951 7.50057C11.3802 7.50057 12.4995 8.61986 12.4995 10.0006Z" stroke="#38AA35" stroke-width="2" stroke-linecap="round"/>
</g>
<defs>
<clipPath id="clip0_122_1376">
<rect width="20" height="20" fill="white"/>
</clipPath>
</defs>
</svg>
