<svg width="24" height="24" viewBox="0 0 24 24" fill="none" xmlns="http://www.w3.org/2000/svg">
<path d="M3.46636 13.8471C3.62662 13.9477 3.81213 14.0008 4.00134 14.0001H11.0006C11.1623 13.9996 11.3217 14.0383 11.4652 14.113C11.6087 14.1876 11.732 14.296 11.8244 14.4287C11.9168 14.5615 11.9756 14.7147 11.9959 14.8752C12.0161 15.0357 11.9971 15.1987 11.9405 15.3502L10.0207 21.3706C9.9906 21.4799 9.99859 21.5963 10.0433 21.7005C10.0881 21.8047 10.1669 21.8906 10.2669 21.9441C10.3669 21.9976 10.4821 22.0155 10.5936 21.9949C10.7051 21.9743 10.8063 21.9163 10.8806 21.8306L20.7795 11.63C20.8987 11.483 20.9737 11.3053 20.9959 11.1173C21.0181 10.9294 20.9866 10.739 20.9049 10.5683C20.8232 10.3976 20.6948 10.2535 20.5345 10.1529C20.3743 10.0523 20.1888 9.99926 19.9995 9.99991H13.0003C12.8386 10.0004 12.6791 9.96171 12.5357 9.88706C12.3922 9.81241 12.2689 9.70406 12.1765 9.57131C12.0841 9.43855 12.0253 9.28536 12.005 9.12486C11.9848 8.96437 12.0038 8.80136 12.0604 8.64983L13.9802 2.62947C14.0103 2.52011 14.0023 2.40377 13.9576 2.29956C13.9128 2.19534 13.834 2.10943 13.734 2.05594C13.634 2.00244 13.5188 1.98454 13.4073 2.00516C13.2958 2.02579 13.1946 2.08372 13.1203 2.16944L3.22143 12.37C3.10223 12.517 3.02716 12.6948 3.00496 12.8827C2.98275 13.0707 3.01432 13.2611 3.096 13.4318C3.17767 13.6025 3.3061 13.7465 3.46636 13.8471Z" stroke="#38AA35" stroke-width="2" stroke-linecap="round"/>
</svg>
